<?xml version="1.0" encoding="UTF-8" standalone="no"?>
<!-- Created with Inkscape (http://www.inkscape.org/) -->

<svg
     xmlns:dc="http://purl.org/dc/elements/1.1/"
     xmlns:cc="http://creativecommons.org/ns#"
     xmlns:rdf="http://www.w3.org/1999/02/22-rdf-syntax-ns#"
     xmlns:svg="http://www.w3.org/2000/svg"
     xmlns="http://www.w3.org/2000/svg"
     xmlns:sodipodi="http://sodipodi.sourceforge.net/DTD/sodipodi-0.dtd"
     xmlns:inkscape="http://www.inkscape.org/namespaces/inkscape"
     width="1024"
     height="1024"
     viewBox="0 0 1024 1024"
     id="svg2"
     version="1.1"
     inkscape:version="0.91 r13725"
     sodipodi:docname="eicas-doors.svg">
    <defs
         id="defs4" />
    <sodipodi:namedview
         id="base"
         pagecolor="#ffffff"
         bordercolor="#666666"
         borderopacity="1.0"
         inkscape:pageopacity="0"
         inkscape:pageshadow="2"
         inkscape:zoom="0.35355339"
         inkscape:cx="504.75415"
         inkscape:cy="607.32159"
         inkscape:document-units="px"
         inkscape:current-layer="layer3"
         showgrid="true"
         units="px"
         borderlayer="false"
         fit-margin-top="0"
         fit-margin-left="0"
         fit-margin-right="0"
         fit-margin-bottom="0"
         inkscape:window-width="1536"
         inkscape:window-height="801"
         inkscape:window-x="-8"
         inkscape:window-y="-8"
         inkscape:window-maximized="1"
         showguides="false">
        <inkscape:grid
             type="xygrid"
             id="grid3336"
             originx="-40"
             originy="124.00001" />
    </sodipodi:namedview>
    <metadata
         id="metadata7">
        <rdf:RDF>
            <cc:Work
                 rdf:about="">
                <dc:format>image/svg+xml</dc:format>
                <dc:type
                     rdf:resource="http://purl.org/dc/dcmitype/StillImage" />
                <dc:title></dc:title>
            </cc:Work>
        </rdf:RDF>
    </metadata>
    <g
         inkscape:label="レイヤー 1"
         inkscape:groupmode="layer"
         id="layer1"
         transform="translate(-40,-152.36217)"
         sodipodi:insensitive="true">
        <rect
             style="opacity:1;fill:#000000;fill-opacity:1;fill-rule:nonzero;stroke:none;stroke-opacity:1"
             id="rect3338"
             width="1024"
             height="1024"
             x="40"
             y="152.36217" />
    </g>
    <g
         inkscape:groupmode="layer"
         id="layer3"
         inkscape:label="レイヤー 2">
        <text
             xml:space="preserve"
             style="font-style:normal;font-variant:normal;font-weight:normal;font-stretch:normal;font-size:80px;line-height:120.00000477%;font-family:sans-serif;-inkscape-font-specification:'sans-serif, Normal';text-align:center;letter-spacing:0px;word-spacing:0px;writing-mode:lr-tb;text-anchor:middle;fill:#9fe3e8;fill-opacity:1;stroke:none;stroke-width:1px;stroke-linecap:butt;stroke-linejoin:miter;stroke-opacity:1"
             x="580.966"
             y="75.25058"
             id="text4140"
             sodipodi:linespacing="120%"
             transform="scale(0.878868,1.1378273)"
             inkscape:transform-center-x="-6.5643643"
             inkscape:transform-center-y="125.79235"><tspan
                 sodipodi:role="line"
                 id="tspan5642"
                 x="580.966"
                 y="75.25058">DOORS</tspan></text>
        <g
             transform="matrix(1.012,0,0,0.93,6,94)"
             id="g4105">
            <path
                 inkscape:connector-curvature="0"
                 id="path3340-3"
                 d="m 499.28438,0 c 0,0 -15.25012,13.261982 -21.96094,20.78125 -8.84348,9.908828 -16.51862,20.837101 -23.93282,31.85625 -7.33044,10.894659 -14.3242,22.071815 -20.26093,33.784372 -4.94136,9.748792 -9.06327,19.921508 -12.70938,30.224998 -3.43424,9.70479 -6.20128,19.65136 -8.6,29.66251 -2.92425,12.20448 -5.57293,24.52075 -7.04218,36.98437 C 404.12547,188.83013 404,200 404,200 l 0,267.52187 -103.21875,45.62344 0.008,10.73751 L 404,479.3625 l 0,192.55312 -202.87031,19.00469 -194.4500025,82.99531 0,-123.16718 204.8687525,-88.37031 -0.0797,-9.75782 L 0,646.09062 0,783.28438 204.17031,696.28906 404,678.14375 404,888 c 0,0 1.874,11.38968 2.9,17.06872 3.75955,20.80976 6.99141,41.74592 11.92969,62.30784 1.83425,7.63744 6.56249,22.63128 6.56249,22.63128 l -60.8828,-35.10312 16.07031,-57.69848 5.36093,-8.40464 c 0,0 6.45056,-11.93888 8.62969,-18.33128 2.00211,-5.87304 3.24505,-12.02048 4.00938,-18.17816 0.74672,-6.01576 0.75125,-12.11968 0.54375,-18.17808 -0.20842,-6.08512 -0.67286,-12.19192 -1.79375,-18.17656 -1.15804,-6.18296 -3.02488,-12.22904 -5.06875,-18.17814 -1.8765,-5.46197 -6.58594,-16.025 -6.58594,-16.025 l -69.40938,0 c 0,0 -5.64163,10.50724 -7.87187,16.025 -2.38559,5.90206 -4.44156,11.97134 -5.85625,18.17814 -1.35917,5.9632 -2.09733,12.07344 -2.49688,18.17656 -0.39583,6.0464 -0.53,12.15208 0.10469,18.17808 0.64813,6.15368 1.57087,12.3916 3.76251,18.17816 2.49389,6.58464 10.49687,18.33128 10.49687,18.33128 l 5.70469,8.40464 15.84062,57.69848 14.27969,0 L 428.05,1000 l 143.92031,0 78.35938,-45.09528 16.11093,0 13.46876,-57.69848 3.79687,-8.8328 c 0,0 7.76737,-10.96752 10.42031,-17.08904 2.59191,-5.98072 4.27693,-12.3944 5.22188,-18.84376 0.91082,-6.21648 0.87409,-12.5812 0.38906,-18.84536 -0.49247,-6.36008 -1.83952,-12.64256 -3.33594,-18.84368 -1.54161,-6.38848 -3.5461,-12.6704 -5.79531,-18.84535 -1.75566,-4.81997 -5.99687,-14.17187 -5.99687,-14.17187 l -69.35938,0 c 0,0 -4.35252,9.73921 -6.20469,14.73749 -2.28424,6.16429 -4.47241,12.38933 -6.04062,18.77341 -1.51479,6.16664 -2.72573,12.4452 -3.23125,18.77504 -0.49822,6.23848 -0.60364,12.56792 0.20781,18.77344 0.83722,6.40256 2.35629,12.78584 4.77344,18.77344 2.328,5.76672 9.24375,16.20624 9.24375,16.20624 l 4.06094,9.4328 16.33124,57.69848 -58.95624,34.28744 c 0,0 3.18668,-14.5152 4.56562,-21.8156 3.9093,-20.69672 7.83946,-41.41504 10.50938,-62.30784 C 591.23338,899.4036 592,888 592,888 L 592,678.14375 794.37969,696.28906 1000,784.60313 1000,646.05 792.2,556.44687 l -4.37969,5.63907 204.48905,87.78281 0.1,123.94687 L 798.87031,690.92031 592,671.94531 592,479.3625 695.70938,523.14375 694.57031,512.91562 592,467.52187 592,200 c 0,0 0.27357,-28.85988 -1.25782,-43.17656 -0.79317,-7.4153 -2.20242,-14.78111 -4.09218,-21.99531 -2.05237,-7.83496 -4.93562,-15.43839 -7.8375,-23 -2.48175,-6.46687 -5.24349,-12.828794 -8.17812,-19.10313 -3.02668,-6.471144 -6.31421,-12.820858 -9.71563,-19.103125 -3.44583,-6.364289 -6.90528,-12.736421 -10.825,-18.820313 -4.62283,-7.175211 -9.47788,-14.236401 -14.93437,-20.8 C 529.4361,27.117057 523.09575,20.745146 516.57031,14.615625 511.07054,9.4495344 499.28438,0 499.28438,0 Z m 0.33593,9.4953128 c 0,0 7.2136,5.4562872 10.52031,8.5296872 6.40301,5.951224 12.41223,12.353293 17.95938,19.109375 5.74771,7.000352 10.94436,14.461642 15.8,22.107812 3.70814,5.839203 6.96212,11.961274 10.15,18.1 3.08843,5.947213 5.95631,12.010181 8.6875,18.129685 2.88665,6.467848 5.73484,12.966188 8.13125,19.631258 2.39363,6.65733 4.30187,13.48201 6.22343,20.29062 2.08074,7.37258 4.67304,14.66754 5.7422,22.25312 C 584.80549,171.63178 584,200 584,200 l 0,688 c 0,0 -0.61197,13.6488 -1.45625,20.42032 -2.73626,21.94616 -6.72885,43.75624 -11.67344,65.31248 -1.53105,6.6748 -5.56093,19.77816 -5.56093,19.77816 l -130.61876,0 c 0,0 -5.24436,-13.02696 -7.11875,-19.77816 -6.04093,-21.75808 -9.62199,-44.14816 -13.20156,-66.44376 C 413.34343,900.89304 412,888 412,888 l 0,-688 c 0,0 -0.0347,-11.16003 0.49062,-16.70625 1.17739,-12.43132 3.14943,-24.81553 5.95,-36.98437 2.31619,-10.06409 5.3255,-19.99052 8.94532,-29.66251 3.61335,-9.65469 8.063,-18.992294 12.70468,-28.19687 4.23673,-8.401544 8.75552,-16.682144 13.8,-24.625 7.71969,-12.155145 15.6264,-24.317962 25.12969,-35.135938 6.19408,-7.050964 20.6,-19.1937492 20.6,-19.1937492 z M 317.40313,787.58438 l 65.90937,0 c 0,0 4.19813,8.65209 5.8,13.17498 1.93516,5.464 3.49104,11.08328 4.57188,16.77816 1.04904,5.52736 1.7448,11.15128 1.83749,16.77656 0.0924,5.60808 -0.41333,11.23656 -1.27969,16.77808 -0.88804,5.6804 -2.23825,11.30536 -4,16.77816 -1.71088,5.31488 -6.35,15.5 -6.35,15.5 l -7.50936,7.1484 -53.07032,0 -7.35937,-7.1484 c 0,0 -4.60795,-8.29024 -6.31095,-12.7 -2.09392,-5.42216 -3.95072,-11.02096 -4.75,-16.77816 -0.76901,-5.53944 -0.31848,-11.19456 0,-16.77808 0.32059,-5.62 0.83,-11.25408 1.92032,-16.77656 1.12583,-5.70232 2.95912,-11.24848 4.75,-16.77816 1.74686,-5.3937 5.84063,-15.97498 5.84063,-15.97498 z m 299.63749,0 65.90938,0 c 0,0 4.75458,10.24721 6.6,15.57498 1.89719,5.47728 3.49103,11.08328 4.57187,16.77816 1.04904,5.52744 1.7448,11.15128 1.83751,16.77656 0.0924,5.60808 -0.41334,11.23656 -1.27969,16.77808 -0.88807,5.6804 -1.93795,11.41136 -4,16.77816 -1.78424,4.64376 -7.15,13.1 -7.15,13.1 l -7.50938,7.1484 -53.07031,0 -7.35938,-7.1484 c 0,0 -4.59252,-8.56792 -6.31093,-13.1 -2.06071,-5.43488 -3.95075,-11.02096 -4.75,-16.77816 -0.76903,-5.53944 -0.31851,-11.19456 0,-16.77808 0.32057,-5.62 0.82998,-11.25408 1.92031,-16.77656 1.12583,-5.70232 2.9363,-11.25592 4.75,-16.77816 1.7301,-5.26761 5.84062,-15.57498 5.84062,-15.57498 z M 325.50782,896.8 l 48.925,0 -11.79064,52.67968 -23.40936,0 -13.725,-52.67968 z m 299.63749,0 48.525,0 -10.19062,52.67968 -24.60938,0 -13.725,-52.67968 z"
                 style="fill:#0062fb" />
            <path
                 inkscape:connector-curvature="0"
                 id="path3352-0"
                 d="m 407.48282,202.81562 0,55.48907 64.61718,0 0,-55.48907 -64.61718,0 z m 6.41405,5.95469 51.36251,0 0,44.425 -51.36251,0 0,-44.425 z"
                 style="fill:#00fc00" />
            <path
                 inkscape:connector-curvature="0"
                 id="path3354-3"
                 d="m 551.01406,202.44531 0,56.46407 38.85625,0 0,-56.46407 -38.85625,0 z m 8.66563,6.41251 24.63437,0 0,43.51249 -24.63437,0 0,-43.51249 z"
                 style="fill:#00fc00" />
            <path
                 inkscape:connector-curvature="0"
                 id="path3368-9"
                 d="m 407.9,285.70938 0,80.05624 30.20938,0 0,-80.05624 -30.20938,0 z M 412,292 l 20,0 0,68 -20,0 0,-68 z"
                 style="fill:#00fd00" />
            <path
                 inkscape:connector-curvature="0"
                 id="path3372-4"
                 d="m 466.25,346.32969 0,46.27969 67.5,0 0,-46.27969 -67.5,0 z m 6.83906,6.87031 53.82656,0 0,31.6 -53.82656,0 0,-31.6 z"
                 style="fill:#00fa00" />
            <path
                 inkscape:connector-curvature="0"
                 id="path3376-0"
                 d="m 407.73282,369.10469 0,82.25 30.34687,0 0,-82.25 -30.34687,0 z M 412,376 l 20,0 0,68 -20,0 0,-68 z"
                 style="fill:#00fd00" />
            <path
                 inkscape:connector-curvature="0"
                 id="path3386-4"
                 d="m 407.775,504.95469 0,63.32031 25.47969,0 0,-63.32031 -25.47969,0 z m 6.175,5.78593 12.59531,0 0,51.3 -12.59531,0 0,-51.3 z"
                 style="fill:#00fb00" />
            <path
                 inkscape:connector-curvature="0"
                 id="path3388-5"
                 d="m 566.40469,504.58438 0,63.775 23.54062,0 0,-63.775 -23.54062,0 z m 6.31562,6.14531 11.30938,0 0,51.16093 -11.30938,0 0,-51.16093 z"
                 style="fill:#00fb00" />
            <path
                 inkscape:connector-curvature="0"
                 id="path3398-5"
                 d="m 407.54531,607.83438 0,67.20624 25.61407,0 0,-67.20624 -25.61407,0 z m 6.47031,6.125 12.46876,0 0,54.84218 -12.46876,0 0,-54.84218 z"
                 style="fill:#00fc00" />
            <path
                 inkscape:connector-curvature="0"
                 id="path3400-3"
                 d="m 566.84531,607.9 0,67.40938 22.9,0 0,-67.40938 -22.9,0 z m 6.92969,6.33438 9.79062,0 0,55.36093 -9.79062,0 0,-55.36093 z"
                 style="fill:#00fc00" />
            <path
                 inkscape:connector-curvature="0"
                 id="path3412-6"
                 d="m 407.79062,781.27969 -0.0812,82.89999 30.51093,0.0112 -0.0703,-82.86095 -30.35937,-0.05 z m 6.83438,6.675 16.63906,0 0,70.17971 -16.63906,0 0,-70.17971 z"
                 style="fill:#00fc00" />
        </g>
    </g>
</svg>
